<svg width="160" height="41" viewBox="0 0 160 41" fill="none" xmlns="http://www.w3.org/2000/svg">
<path d="M11.4516 8.62C5.502 8.62 1.91079 11.293 1.45519 15.451V16.099H6.1988C6.44 13.642 8.23559 12.454 11.3712 12.454C14.5068 12.454 16.0612 13.642 16.0612 16.558V17.098L8.15519 18.097C3.70639 18.664 0.302795 20.662 0.302795 25.144C0.302795 29.41 3.7064 31.894 8.6108 31.894C13.006 31.894 15.0428 30.301 15.9004 28.789H16.2488V31.462H20.9388V17.125C20.9388 11.293 17.3744 8.62 11.4516 8.62ZM16.0612 21.958C16.0612 26.089 13.2204 28.006 9.60239 28.006C6.97599 28.006 5.36799 26.845 5.36799 24.901C5.36799 22.984 6.89559 22.066 9.25399 21.742L16.0612 20.824V21.958Z" fill="white"/>
<path d="M29.3272 6.13599V9.13299H24.2352V13.102H29.3272V31.489H34.4192V13.102H40.4492V9.13299H34.4192V4.51599L34.7676 4.16499H40.744V0.330994H35.4376C31.5784 0.330994 29.3272 2.32899 29.3272 6.13599Z" fill="white"/>
<path d="M49.2396 11.725H48.8912V9.16H44.0136V31.489H49.1056V19.528C49.1056 15.316 50.7672 13.291 54.546 13.291H57.628V9.052H54.546C51.4908 9.052 50.0436 10.105 49.2396 11.725Z" fill="white"/>
<path d="M66.2576 9.133H61.1656V31.462H66.2576V9.133Z" fill="white"/>
<path d="M87.108 11.752H86.7596C85.2052 9.484 82.7128 8.647 79.8184 8.647C74.2172 8.647 69.7684 12.319 69.7684 19.879C69.7684 27.412 74.2172 31.084 79.8184 31.084C82.6592 31.084 85.0712 30.274 86.6792 28.114H87.0276V30.463C87.0276 34.432 85.2052 36.646 81.0512 36.646C76.924 36.646 75.2356 34.567 75.0212 32.461H70.3312V33.109C70.7064 37.159 74.2708 40.615 81.212 40.615C88.2872 40.615 92.0928 36.916 92.0928 29.95V9.106H87.108V11.752ZM81.0512 27.061C77.326 27.061 74.914 24.496 74.914 19.906C74.914 15.289 77.3528 12.724 81.0512 12.724C84.7496 12.724 87.1616 15.289 87.1616 19.906C87.1616 24.496 84.7496 27.061 81.0512 27.061Z" fill="white"/>
<path d="M110.906 21.634C110.906 25.954 108.36 27.844 105.064 27.844C102.062 27.844 100.454 26.386 100.454 23.308V9.133H95.3624V23.74C95.3624 29.248 98.5516 31.948 103.778 31.948C106.752 31.948 109.218 31.084 110.746 29.005H111.094V31.462H115.998V9.133H110.906V21.634Z" fill="white"/>
<path d="M124.762 9.133H119.67V31.462H124.762V9.133Z" fill="white"/>
<path d="M133.526 0.330994H128.434V31.462H133.526V0.330994Z" fill="white"/>
<path d="M154.215 0.330994V11.59H153.867C152.232 9.48399 149.766 8.67399 146.899 8.67399C141.244 8.67399 136.742 12.481 136.742 20.311C136.742 28.141 141.217 31.975 146.899 31.975C149.847 31.975 152.339 31.138 153.974 28.897H154.322V31.489H159.28V0.330994H154.215ZM148.158 27.925C144.406 27.925 141.887 25.225 141.887 20.311C141.887 15.424 144.406 12.724 148.158 12.724C151.91 12.724 154.403 15.424 154.403 20.311C154.403 25.225 151.91 27.925 148.158 27.925Z" fill="white"/>
<path d="M122.216 0.330994C120.581 0.330994 119.268 1.65399 119.268 3.30099C119.268 4.94799 120.581 6.27099 122.216 6.27099C123.851 6.27099 125.164 4.94799 125.164 3.30099C125.137 1.68099 123.824 0.330994 122.216 0.330994Z" fill="white"/>
<path d="M63.7116 0.330994C62.0768 0.330994 60.7636 1.65399 60.7636 3.30099C60.7636 4.94799 62.0768 6.27099 63.7116 6.27099C65.3464 6.27099 66.6596 4.94799 66.6596 3.30099C66.6328 1.68099 65.3196 0.330994 63.7116 0.330994Z" fill="white"/>
</svg>
