<svg width="44" height="41" viewBox="0 0 44 41" fill="none" xmlns="http://www.w3.org/2000/svg">
<path d="M42.1524 32.407L28.1896 4.21901C25.6436 -0.937993 18.3272 -0.937993 15.7812 4.21901L1.73798 32.38C0.585581 34.702 0.451581 37.159 1.04118 39.373C1.41638 40.75 3.23878 41.074 4.06958 39.94C8.14318 34.486 14.6288 30.949 21.9184 30.949C29.2348 30.949 35.6936 34.486 39.7672 39.967C40.6248 41.101 42.4204 40.777 42.7956 39.4C43.4388 37.186 43.3048 34.729 42.1524 32.407ZM28.2432 22.984C28.2432 24.28 27.198 25.306 25.9384 25.306H17.9788C16.6924 25.306 15.674 24.253 15.674 22.984V14.965C15.674 13.669 16.7192 12.643 17.9788 12.643H25.9384C27.2248 12.643 28.2432 13.696 28.2432 14.965V22.984Z" fill="#F4068F"/>
</svg>
